<svg width="14" height="14" viewBox="0 0 14 14" fill="none" xmlns="http://www.w3.org/2000/svg">
<path fill-rule="evenodd" clip-rule="evenodd" d="M5.83334 1.16667C5.36921 1.16667 4.9241 1.35105 4.59591 1.67923C4.26772 2.00742 4.08334 2.45254 4.08334 2.91667V3.50001H2.33334C1.36685 3.50001 0.583344 4.28351 0.583344 5.25V11.0833C0.583344 12.0498 1.36685 12.8333 2.33334 12.8333H11.6667C12.6332 12.8333 13.4167 12.0498 13.4167 11.0833V5.25C13.4167 4.28351 12.6332 3.50001 11.6667 3.50001H9.91668V2.91667C9.91668 2.45254 9.7323 2.00742 9.40411 1.67923C9.07593 1.35105 8.63081 1.16667 8.16668 1.16667H5.83334ZM8.75001 3.50001V2.91667C8.75001 2.76196 8.68855 2.61359 8.57916 2.50419C8.46976 2.3948 8.32139 2.33334 8.16668 2.33334H5.83334C5.67863 2.33334 5.53026 2.3948 5.42086 2.50419C5.31147 2.61359 5.25001 2.76196 5.25001 2.91667V3.50001H8.75001ZM5.25001 4.66667H8.75001V11.6667H5.25001V4.66667ZM4.08334 4.66667H2.33334C2.01118 4.66667 1.75001 4.92784 1.75001 5.25V11.0833C1.75001 11.4055 2.01118 11.6667 2.33334 11.6667H4.08334V4.66667ZM9.91668 11.6667V4.66667H11.6667C11.9888 4.66667 12.25 4.92784 12.25 5.25V11.0833C12.25 11.4055 11.9888 11.6667 11.6667 11.6667H9.91668Z" fill="#FFD700"/>
</svg>
