<svg width="124" height="101" viewBox="0 0 124 101" fill="none" xmlns="http://www.w3.org/2000/svg">
<g clip-path="url(#clip0_164_38)">
<path d="M57.4 50.27H66.48C67.81 50.27 69.03 50.81 69.9 51.69C70.78 52.57 71.32 53.78 71.32 55.11V74.25C71.32 75.58 70.78 76.79 69.9 77.67C69.02 78.55 67.81 79.09 66.48 79.09H57.4C56.07 79.09 54.86 78.55 53.98 77.67C53.1 76.79 52.56 75.58 52.56 74.25V55.12C52.56 53.79 53.1 52.57 53.98 51.7C54.86 50.82 56.07 50.27 57.4 50.27ZM7.47 13.96H38.97V4.94C38.97 3.58 39.52 2.35 40.42 1.45C41.31 0.55 42.55 0 43.91 0H79.97C81.33 0 82.56 0.55 83.46 1.45C84.35 2.34 84.91 3.58 84.91 4.94V13.97H116.41C118.33 13.97 120.07 14.75 121.34 16.02C122.6 17.28 123.39 19.03 123.39 20.95V93.57C123.39 95.49 122.61 97.23 121.34 98.5C120.08 99.76 118.33 100.55 116.41 100.55H7.47C5.55 100.55 3.81 99.77 2.54 98.5C1.28 97.22 0.5 95.48 0.5 93.56V20.94C0.5 19.02 1.28 17.28 2.55 16.01C3.81 14.75 5.55 13.96 7.47 13.96ZM79.97 4.33H43.91C43.74 4.33 43.59 4.4 43.48 4.51C43.37 4.62 43.3 4.77 43.3 4.94V13.87H80.58V4.94C80.58 4.77 80.51 4.62 80.4 4.51C80.29 4.39 80.14 4.33 79.97 4.33ZM4.82 55.63C20.75 60.21 32.53 62.18 48.47 62.92V67.25C32.54 66.52 20.76 64.6 4.82 60.11V93.55C4.82 94.28 5.12 94.94 5.6 95.42C6.08 95.9 6.74 96.2 7.47 96.2H116.4C117.13 96.2 117.79 95.9 118.27 95.42C118.75 94.94 119.05 94.28 119.05 93.55V60.12C103.14 64.6 92.07 66.52 76.17 67.25V62.92C92.08 62.17 103.15 60.2 119.05 55.63V20.94C119.05 20.21 118.75 19.55 118.27 19.07C117.79 18.59 117.13 18.29 116.4 18.29H7.47C6.74 18.29 6.08 18.59 5.6 19.07C5.12 19.55 4.82 20.21 4.82 20.94V55.63ZM66.48 54.6H57.4C57.26 54.6 57.13 54.66 57.04 54.75C56.95 54.84 56.89 54.97 56.89 55.11V74.25C56.89 74.39 56.95 74.52 57.04 74.61C57.13 74.71 57.26 74.76 57.4 74.76H66.48C66.62 74.76 66.75 74.7 66.84 74.61C66.93 74.52 66.99 74.39 66.99 74.25V55.12C66.99 54.98 66.93 54.85 66.84 54.76C66.75 54.66 66.62 54.6 66.48 54.6Z" fill="#FFD700"/>
</g>
<defs>
<clipPath id="clip0_164_38">
<rect width="122.88" height="100.53" fill="white" transform="translate(0.5)"/>
</clipPath>
</defs>
</svg>
