<svg width="124" height="123" viewBox="0 0 124 123" fill="none" xmlns="http://www.w3.org/2000/svg">
<g clip-path="url(#clip0_164_35)">
<path fill-rule="evenodd" clip-rule="evenodd" d="M110.59 6.2L117.17 12.78C125.44 21.05 125.44 34.59 117.17 42.86L99.7401 60.29C93.2201 66.82 83.4101 68.18 75.5001 64.41L106.36 33.55C109.41 30.5 109.41 25.52 106.36 22.48L100.39 16.51C97.3401 13.46 92.3701 13.46 89.3201 16.51L58.6501 47.17C55.2801 39.39 56.7501 29.97 63.0801 23.64L80.5201 6.2C88.7901 -2.07 102.32 -2.07 110.59 6.2ZM80.4301 116.8L86.8101 115.48L82.6901 95.59L76.3201 96.93L80.4301 116.8ZM36.8801 2.15L43.1901 0.589998L48.1401 20.25L41.8301 21.85L36.8801 2.15ZM103.36 105.79L107.89 101.12L93.3201 86.98L88.7901 91.66L103.36 105.79ZM118.12 84.76L119.8 78.48L100.2 73.22L98.5101 79.51L118.12 84.76ZM3.04006 40.47L4.85006 34.22L24.3501 39.77L22.5801 46.04L3.04006 40.47ZM13.8801 17.17L18.4901 12.57L32.8301 26.92L28.2401 31.53L13.8801 17.17ZM6.70006 110.09L13.2801 116.67C21.5501 124.94 35.0801 124.94 43.3601 116.67L60.7901 99.24C67.3201 92.72 68.6801 82.91 64.9101 75L34.0501 105.86C31.0001 108.91 26.0201 108.91 22.9801 105.86L17.0101 99.89C13.9601 96.84 13.9601 91.86 17.0101 88.81L47.6801 58.15C39.8901 54.78 30.4801 56.25 24.1401 62.59L6.70006 80.02C-1.56994 88.29 -1.56994 101.82 6.70006 110.09Z" fill="#FFD700"/>
</g>
<defs>
<clipPath id="clip0_164_35">
<rect width="122.88" height="122.88" fill="white" transform="translate(0.5)"/>
</clipPath>
</defs>
</svg>
