<svg width="124" height="89" viewBox="0 0 124 89" fill="none" xmlns="http://www.w3.org/2000/svg">
<g clip-path="url(#clip0_164_41)">
<path d="M7.548 0H116.332C118.271 0 120.033 0.794 121.309 2.069C122.586 3.346 123.379 5.111 123.379 7.048V81.807C123.379 83.268 122.928 84.629 122.158 85.758C122.017 86.123 121.797 86.463 121.496 86.752C121.295 86.941 121.074 87.096 120.84 87.213C119.615 88.234 118.041 88.856 116.332 88.856H7.548C5.611 88.856 3.847 88.063 2.569 86.786C1.294 85.51 0.5 83.748 0.5 81.807V7.048C0.5 5.107 1.292 3.344 2.568 2.069C3.844 0.792 5.607 0 7.548 0ZM5.906 78.842L44.03 40.622L5.906 9.538V78.842ZM48.229 44.045L8.924 83.449H114.625L77.063 44.051L64.68 54.602C63.709 55.432 62.255 55.479 61.227 54.645L48.229 44.045ZM81.174 40.549L117.973 79.147V9.198L81.174 40.549ZM9.367 5.406L62.888 49.045L114.111 5.406H9.367Z" fill="#FFD700"/>
</g>
<defs>
<clipPath id="clip0_164_41">
<rect width="122.879" height="88.855" fill="white" transform="translate(0.5)"/>
</clipPath>
</defs>
</svg>
