<svg width="124" height="122" viewBox="0 0 124 122" fill="none" xmlns="http://www.w3.org/2000/svg">
<g clip-path="url(#clip0_164_44)">
<path d="M74.901 65.787H116.328C118.271 65.787 120.035 66.578 121.31 67.855C122.586 69.13 123.379 70.894 123.379 72.837V114.083C123.379 116.024 122.586 117.79 121.31 119.063C120.035 120.34 118.271 121.133 116.328 121.133H74.901C72.959 121.133 71.195 120.34 69.919 119.063C68.644 117.79 67.851 116.024 67.851 114.083V72.838C67.851 70.895 68.644 69.131 69.919 67.856C71.195 66.578 72.959 65.787 74.901 65.787ZM7.552 0H48.978C50.92 0 52.685 0.792 53.961 2.069C55.237 3.346 56.029 5.109 56.029 7.052V48.297C56.029 50.24 55.237 52.004 53.961 53.279C52.685 54.555 50.92 55.348 48.978 55.348H7.552C5.618 55.348 3.86 54.555 2.583 53.279L2.576 53.273L2.569 53.279C1.292 52.003 0.5 50.239 0.5 48.296V7.052C0.5 5.109 1.292 3.345 2.569 2.069C2.662 1.976 2.76 1.888 2.859 1.807C4.107 0.685 5.755 0 7.552 0ZM48.631 7.397H7.897V47.95H48.63L48.631 7.397ZM74.901 0H116.328C118.271 0 120.035 0.792 121.31 2.069C122.586 3.345 123.379 5.109 123.379 7.052V48.297C123.379 50.24 122.586 52.004 121.31 53.279C120.035 54.555 118.271 55.348 116.328 55.348H74.901C72.959 55.348 71.195 54.555 69.919 53.279C68.644 52.004 67.851 50.239 67.851 48.297V7.052C67.851 5.109 68.644 3.345 69.919 2.069C71.195 0.792 72.959 0 74.901 0ZM115.982 7.397H75.248V47.95H115.982V7.397ZM7.552 65.787H48.978C50.92 65.787 52.685 66.578 53.961 67.855C55.237 69.13 56.029 70.894 56.029 72.837V114.083C56.029 116.024 55.237 117.79 53.961 119.063C52.685 120.34 50.92 121.133 48.978 121.133H7.552C5.618 121.133 3.86 120.34 2.583 119.063L2.576 119.057L2.569 119.063C1.292 117.791 0.5 116.025 0.5 114.084V72.838C0.5 70.895 1.292 69.131 2.569 67.856C2.662 67.762 2.76 67.674 2.86 67.592C4.107 66.471 5.755 65.787 7.552 65.787ZM48.631 73.184H7.897V113.737H48.63L48.631 73.184ZM115.982 73.184H75.248V113.737H115.982V73.184Z" fill="#FFD700"/>
</g>
<defs>
<clipPath id="clip0_164_44">
<rect width="122.88" height="121.135" fill="white" transform="translate(0.5)"/>
</clipPath>
</defs>
</svg>
