<svg width="24" height="24" viewBox="0 0 24 24" fill="none" xmlns="http://www.w3.org/2000/svg">
<g clip-path="url(#clip0_117_9)">
<path fill-rule="evenodd" clip-rule="evenodd" d="M11.9996 0.298987C5.37349 0.298987 0 5.67157 0 12.2985C0 17.6007 3.43793 22.0972 8.20598 23.6846C8.80613 23.7958 9.0267 23.4237 9.0267 23.1066C9.0267 22.8205 9.01474 21.8753 9.00986 20.8734C5.67116 21.5994 4.96736 19.457 4.96736 19.457C4.42166 18.0697 3.63503 17.7008 3.63503 17.7008C2.54632 16.9553 3.71786 16.9717 3.71786 16.9717C4.92259 17.0559 5.55686 18.2075 5.55686 18.2075C6.62786 20.0421 8.36497 19.511 9.04928 19.2049C9.15735 18.4294 9.4674 17.8997 9.81109 17.5998C7.14559 17.2973 4.3437 16.268 4.3437 11.6695C4.3437 10.3598 4.8132 9.28886 5.57989 8.44905C5.45501 8.14612 5.04398 6.92632 5.6955 5.27377C5.6955 5.27377 6.70312 4.9509 8.99659 6.50378C9.95329 6.23846 10.9795 6.1047 11.9987 6.10027C13.0187 6.1047 14.0467 6.23801 15.0048 6.50378C17.2951 4.9518 18.3018 5.27377 18.3018 5.27377C18.9543 6.92677 18.545 8.14744 18.4201 8.44909C19.1895 9.28886 19.655 10.3598 19.655 11.6695C19.655 16.2786 16.8469 17.2919 14.1756 17.5892C14.6061 17.9612 14.9906 18.6916 14.9906 19.8104C14.9906 21.4151 14.9769 22.7084 14.9769 23.103C14.9769 23.4224 15.193 23.7958 15.8016 23.6788C20.5669 22.0905 24.0005 17.5935 24.0005 12.2945C24.0005 5.66842 18.6279 0.294937 12.0005 0.294937L11.9996 0.29895L11.9996 0.298987Z" fill="#EFBF04"/>
</g>
<defs>
<clipPath id="clip0_117_9">
<rect width="24" height="24" fill="white"/>
</clipPath>
</defs>
</svg>
