<svg width="25" height="24" viewBox="0 0 25 24" fill="none" xmlns="http://www.w3.org/2000/svg">
<g clip-path="url(#clip0_164_50)">
<mask id="mask0_164_50" style="mask-type:luminance" maskUnits="userSpaceOnUse" x="0" y="0" width="25" height="24">
<path d="M24.5 0H0.5V24H24.5V0Z" fill="white"/>
</mask>
<g mask="url(#mask0_164_50)">
<path fill-rule="evenodd" clip-rule="evenodd" d="M12.4996 0.298987C5.87349 0.298987 0.5 5.67157 0.5 12.2985C0.5 17.6007 3.93793 22.0972 8.70598 23.6846C9.30613 23.7958 9.5267 23.4237 9.5267 23.1066C9.5267 22.8205 9.51474 21.8753 9.50986 20.8734C6.17116 21.5994 5.46736 19.457 5.46736 19.457C4.92166 18.0697 4.13503 17.7008 4.13503 17.7008C3.04632 16.9553 4.21786 16.9717 4.21786 16.9717C5.42259 17.0559 6.05686 18.2075 6.05686 18.2075C7.12786 20.0421 8.86497 19.511 9.54928 19.2049C9.65735 18.4294 9.9674 17.8997 10.3111 17.5998C7.64559 17.2973 4.8437 16.268 4.8437 11.6695C4.8437 10.3598 5.3132 9.28886 6.07989 8.44905C5.95501 8.14612 5.54398 6.92632 6.1955 5.27377C6.1955 5.27377 7.20312 4.9509 9.49659 6.50378C10.4533 6.23846 11.4795 6.1047 12.4987 6.10027C13.5187 6.1047 14.5467 6.23801 15.5048 6.50378C17.7951 4.9518 18.8018 5.27377 18.8018 5.27377C19.4543 6.92677 19.045 8.14744 18.9201 8.44909C19.6895 9.28886 20.155 10.3598 20.155 11.6695C20.155 16.2786 17.3469 17.2919 14.6756 17.5892C15.1061 17.9612 15.4906 18.6916 15.4906 19.8104C15.4906 21.4151 15.4769 22.7084 15.4769 23.103C15.4769 23.4224 15.693 23.7958 16.3016 23.6788C21.0669 22.0905 24.5005 17.5935 24.5005 12.2945C24.5005 5.66842 19.1279 0.294937 12.5005 0.294937L12.4996 0.298987Z" fill="#EFBF04"/>
</g>
</g>
<defs>
<clipPath id="clip0_164_50">
<rect width="24" height="24" fill="white" transform="translate(0.5)"/>
</clipPath>
</defs>
</svg>
