<svg width="124" height="89" viewBox="0 0 124 89" fill="none" xmlns="http://www.w3.org/2000/svg">
<g clip-path="url(#clip0_164_47)">
<path d="M58.7899 42.08V3.12C58.7899 1.4 60.1999 0 61.9399 0C63.6799 0 65.0899 1.4 65.0899 3.12V42.08L79.5999 29.4C80.8999 28.26 82.8799 28.38 84.0299 29.67C85.1799 30.96 85.0599 32.92 83.7599 34.06L64.0199 51.3C62.8099 52.36 61.0099 52.33 59.8399 51.28L40.1199 34.06C38.8199 32.92 38.6999 30.96 39.8499 29.67C40.9999 28.39 42.9799 28.27 44.2799 29.4L58.7899 42.08ZM0.589856 47.43C0.159856 45.66 1.24986 43.88 3.01986 43.45C4.78986 43.02 6.56986 44.11 6.99986 45.88C8.02986 50.14 8.75986 53.81 9.42986 57.18C12.5999 73.17 14.2999 81.75 36.5799 81.75H89.1299C109.95 81.75 111.64 72.68 114.45 57.66C115.12 54.06 115.85 50.16 116.89 45.88C117.32 44.11 119.1 43.02 120.87 43.45C122.64 43.88 123.72 45.66 123.3 47.43C122.32 51.45 121.6 55.31 120.94 58.88C117.5 77.26 115.43 88.36 89.1399 88.36H36.5699C8.86985 88.36 6.79986 77.92 2.93986 58.45C2.20986 54.77 1.47986 51.08 0.589856 47.43Z" fill="#FFD700"/>
</g>
<defs>
<clipPath id="clip0_164_47">
<rect width="122.88" height="88.36" fill="white" transform="translate(0.5)"/>
</clipPath>
</defs>
</svg>
