<svg width="25" height="24" viewBox="0 0 25 24" fill="none" xmlns="http://www.w3.org/2000/svg">
<g clip-path="url(#clip0_164_56)">
<mask id="mask0_164_56" style="mask-type:luminance" maskUnits="userSpaceOnUse" x="0" y="0" width="25" height="24">
<path d="M24.5 0H0.5V23.8894H24.5V0Z" fill="white"/>
</mask>
<g mask="url(#mask0_164_56)">
<path d="M19.0808 0H5.91922C2.92627 0 0.5 2.42627 0.5 5.41922V18.4702C0.5 21.4631 2.92627 23.8894 5.91922 23.8894H19.0808C22.0737 23.8894 24.5 21.4631 24.5 18.4702V5.41922C24.5 2.42627 22.0737 0 19.0808 0Z" fill="#EFBF04"/>
<path fill-rule="evenodd" clip-rule="evenodd" d="M10.1081 9.25969H13.1404V10.8141H13.1845C13.6068 10.0566 14.6395 9.25969 16.1793 9.25969C19.3814 9.25969 19.9734 11.2523 19.9734 13.8445V19.3252H16.8112L16.8107 14.4441C16.8107 13.328 16.7878 11.8917 15.1664 11.8917C13.5201 11.8917 13.2675 13.1063 13.2675 14.363V19.3252H10.1081V9.25969ZM8.31608 6.2086C8.31608 7.1161 7.57921 7.85297 6.67171 7.85297C5.76374 7.85297 5.02686 7.1161 5.02686 6.2086C5.02686 5.30063 5.76374 4.56422 6.67171 4.56422C7.57921 4.56422 8.31608 5.30063 8.31608 6.2086ZM5.02686 9.25969H8.31608V19.3252H5.02686V9.25969Z" fill="white"/>
</g>
</g>
<defs>
<clipPath id="clip0_164_56">
<rect width="24" height="24" fill="white" transform="translate(0.5)"/>
</clipPath>
</defs>
</svg>
