<svg width="24" height="24" viewBox="0 0 24 24" fill="none" xmlns="http://www.w3.org/2000/svg">
<g clip-path="url(#clip0_117_5)">
<path d="M18.5808 0H5.41922C2.42627 0 0 2.42627 0 5.41922V18.4702C0 21.4631 2.42627 23.8894 5.41922 23.8894H18.5808C21.5737 23.8894 24 21.4631 24 18.4702V5.41922C24 2.42627 21.5737 0 18.5808 0Z" fill="#EFBF04"/>
<path fill-rule="evenodd" clip-rule="evenodd" d="M9.60798 9.25969H12.6403V10.8141H12.6844C13.1067 10.0566 14.1394 9.25969 15.6792 9.25969C18.8813 9.25969 19.4733 11.2523 19.4733 13.8445V19.3252H16.3111L16.3106 14.4441C16.3106 13.328 16.2877 11.8917 14.6663 11.8917C13.02 11.8917 12.7674 13.1063 12.7674 14.363V19.3252H9.60798V9.25969ZM7.81595 6.2086C7.81595 7.1161 7.07908 7.85297 6.17158 7.85297C5.26361 7.85297 4.52673 7.1161 4.52673 6.2086C4.52673 5.30063 5.26361 4.56422 6.17158 4.56422C7.07908 4.56422 7.81595 5.30063 7.81595 6.2086ZM4.52673 9.25969H7.81595V19.3252H4.52673V9.25969Z" fill="#292F36"/>
</g>
<defs>
<clipPath id="clip0_117_5">
<rect width="24" height="23.8894" fill="white"/>
</clipPath>
</defs>
</svg>
