<svg width="13" height="10" viewBox="0 0 13 10" fill="none" xmlns="http://www.w3.org/2000/svg">
<g clip-path="url(#clip0_151_37)">
<path d="M1.18829 0.661346H11.8118C12.0012 0.661346 12.1732 0.738886 12.2979 0.863399C12.4226 0.988107 12.5 1.16047 12.5 1.34963V8.65038C12.5 8.79305 12.456 8.92597 12.3808 9.03622C12.367 9.07187 12.3455 9.10507 12.3161 9.13329C12.2965 9.15175 12.2749 9.16689 12.252 9.17831C12.1324 9.27802 11.9787 9.33876 11.8118 9.33876H1.18829C0.999125 9.33876 0.826858 9.26132 0.702052 9.13661C0.57754 9.012 0.5 8.83993 0.5 8.65038V1.34963C0.5 1.16008 0.577344 0.987912 0.701955 0.863399C0.826565 0.738691 0.998735 0.661346 1.18829 0.661346ZM1.02793 8.36082L4.75101 4.62837L1.02793 1.5928V8.36082ZM5.16107 4.96265L1.32266 8.81073H11.6451L7.97692 4.96324L6.76763 5.99362C6.6728 6.07467 6.53081 6.07926 6.43042 5.99782L5.16107 4.96265ZM8.37838 4.62124L11.9721 8.39061V1.5596L8.37838 4.62124ZM1.36593 1.18928L6.59263 5.45094L11.5949 1.18928H1.36593Z" fill="#FFD700"/>
</g>
<defs>
<clipPath id="clip0_151_37">
<rect width="12" height="8.67732" fill="white" transform="translate(0.5 0.661346)"/>
</clipPath>
</defs>
</svg>
