<svg width="14" height="10" viewBox="0 0 14 10" fill="none" xmlns="http://www.w3.org/2000/svg">
<mask id="mask0_164_92" style="mask-type:luminance" maskUnits="userSpaceOnUse" x="1" y="0" width="12" height="10">
<path d="M13 0.661346H1V9.33867H13V0.661346Z" fill="white"/>
</mask>
<g mask="url(#mask0_164_92)">
<path d="M1.68829 0.661346H12.3118C12.5012 0.661346 12.6732 0.738886 12.7979 0.863399C12.9226 0.988107 13 1.16047 13 1.34963V8.65038C13 8.79305 12.956 8.92597 12.8808 9.03622C12.867 9.07187 12.8455 9.10507 12.8161 9.13329C12.7965 9.15175 12.7749 9.16689 12.752 9.17831C12.6324 9.27802 12.4787 9.33876 12.3118 9.33876H1.68829C1.49913 9.33876 1.32686 9.26132 1.20205 9.13661C1.07754 9.012 1 8.83993 1 8.65038V1.34963C1 1.16008 1.07734 0.987912 1.20196 0.863399C1.32657 0.738691 1.49873 0.661346 1.68829 0.661346ZM1.52793 8.36082L5.25101 4.62837L1.52793 1.5928V8.36082ZM5.66107 4.96265L1.82266 8.81073H12.1451L8.47692 4.96324L7.26763 5.99362C7.1728 6.07467 7.03081 6.07926 6.93042 5.99782L5.66107 4.96265ZM8.87838 4.62124L12.4721 8.39061V1.5596L8.87838 4.62124ZM1.86593 1.18928L7.09263 5.45094L12.0949 1.18928H1.86593Z" fill="#FFD700"/>
</g>
</svg>
