<svg width="93" height="123" viewBox="0 0 93 123" fill="none" xmlns="http://www.w3.org/2000/svg">
<g clip-path="url(#clip0_164_63)">
<path d="M47.9902 116.85C54.3002 112.84 59.9702 107.98 64.9102 102.56C75.6402 90.81 82.8802 76.45 85.7802 62.36C88.6602 48.45 87.3002 34.82 80.9302 24.3C79.1202 21.28 76.8502 18.52 74.1502 16.04C66.4102 8.99 57.5502 5.63 48.6302 5.54C39.2602 5.47 29.7602 8.99 21.3602 15.68C17.7802 18.54 14.8302 21.83 12.5402 25.46C6.64016 34.74 4.85016 46.26 6.80016 58.31C8.77016 70.54 14.5802 83.33 23.8402 94.92C30.2802 103 38.3802 110.5 48.0202 116.83L47.9902 116.85ZM46.6302 21.16C53.6802 21.16 60.0802 24.02 64.6902 28.65C69.3202 33.28 72.1802 39.65 72.1802 46.71C72.1802 53.76 69.3202 60.16 64.6902 64.77C60.0602 69.4 53.6902 72.26 46.6302 72.26C39.5802 72.26 33.1802 69.4 28.5702 64.77C23.9402 60.14 21.0802 53.77 21.0802 46.71C21.0802 39.66 23.9402 33.26 28.5702 28.65C33.2002 24.02 39.5702 21.16 46.6302 21.16ZM61.0102 32.33C57.3402 28.66 52.2302 26.36 46.6302 26.36C41.0002 26.36 35.9202 28.63 32.2502 32.33C28.5802 36 26.2802 41.11 26.2802 46.71C26.2802 52.34 28.5502 57.42 32.2502 61.09C35.9202 64.76 41.0302 67.06 46.6302 67.06C52.2602 67.06 57.3402 64.79 61.0102 61.09C64.6802 57.42 66.9802 52.31 66.9802 46.71C66.9702 41.08 64.7102 36 61.0102 32.33ZM69.0202 106.27C63.4202 112.39 56.9302 117.88 49.6002 122.33C48.7202 122.99 47.4702 123.08 46.4702 122.44C35.6702 115.57 26.6202 107.31 19.4802 98.35C9.65016 86.02 3.44016 72.34 1.33016 59.16C-0.819837 45.8 1.19016 32.96 7.84016 22.48C10.4702 18.35 13.8102 14.59 17.9102 11.34C27.2802 3.88 38.0102 -0.070001 48.6702 -1.01142e-06C58.9502 0.089999 69.0902 3.9 77.8902 11.93C80.9802 14.74 83.5602 17.92 85.6702 21.41C92.8202 33.18 94.3602 48.22 91.2302 63.42C88.1202 78.46 80.4302 93.75 69.0502 106.22L69.0202 106.27Z" fill="#FFD700"/>
</g>
<defs>
<clipPath id="clip0_164_63">
<rect width="92.26" height="122.88" fill="white" transform="translate(0.5)"/>
</clipPath>
</defs>
</svg>
