<svg width="124" height="123" viewBox="0 0 124 123" fill="none" xmlns="http://www.w3.org/2000/svg">
<g clip-path="url(#clip0_164_66)">
<path d="M111.1 72.58C111.1 69.39 113.69 66.8 116.88 66.8C120.07 66.8 122.66 69.39 122.66 72.58V105.77C122.66 110.48 120.74 114.76 117.64 117.86C114.54 120.96 110.26 122.88 105.55 122.88H17.61C12.9 122.88 8.62 120.96 5.52 117.86C2.42 114.76 0.5 110.48 0.5 105.77V17.19C0.5 12.48 2.42 8.2 5.52 5.1C8.62 2 12.9 0.0799981 17.61 0.0799981H50.59C53.78 0.0799981 56.37 2.67 56.37 5.86C56.37 9.05 53.78 11.64 50.59 11.64H17.61C16.09 11.64 14.71 12.27 13.7 13.27C12.69 14.28 12.07 15.66 12.07 17.18V105.76C12.07 107.28 12.7 108.66 13.7 109.67C14.71 110.68 16.09 111.3 17.61 111.3H105.56C107.08 111.3 108.46 110.67 109.47 109.67C110.48 108.67 111.1 107.28 111.1 105.76V72.58ZM112.92 17.46L54.51 76.6C52.28 78.87 48.62 78.9 46.35 76.67C44.08 74.44 44.05 70.78 46.28 68.51L102.44 11.64H79.06C75.87 11.64 73.28 9.05 73.28 5.86C73.28 2.67 75.87 0.0799981 79.06 0.0799981H105.56C110.68 0.0799981 117.28 -0.790002 121.21 3.18C123.69 5.69 123.14 25.7 122.82 37.29C122.74 40.29 122.67 42.58 122.67 44.22C122.67 47.41 120.08 50 116.89 50C113.7 50 111.11 47.41 111.11 44.22C111.11 43.91 111.19 40.9 111.3 36.98C111.46 30.94 112.43 22.94 112.92 17.46Z" fill="#FFD700"/>
</g>
<defs>
<clipPath id="clip0_164_66">
<rect width="122.6" height="122.88" fill="white" transform="translate(0.5)"/>
</clipPath>
</defs>
</svg>
