<svg width="412" height="513" viewBox="0 0 412 513" fill="none" xmlns="http://www.w3.org/2000/svg">
<g clip-path="url(#clip0_164_69)">
<path fill-rule="evenodd" clip-rule="evenodd" d="M411.43 485.29C411.43 492.73 408.43 499.39 403.58 504.23C398.75 509.06 392.08 512.07 384.76 512.07H27.29C19.97 512.07 13.17 509.06 8.35 504.23C3.5 499.39 0.5 492.73 0.5 485.29V26.78C0.5 19.33 3.5 12.67 8.35 7.83C13.17 3 19.83 0 27.29 0H257.32C261.89 0 266.08 2.08 268.81 5.49L400.66 133.86C406.93 135.56 411.5 141.44 411.5 148.23C411.5 260.59 411.43 372.88 411.43 485.29ZM205.73 246.39C207.53 238.66 215.27 233.85 223.01 235.64C230.74 237.44 235.55 245.18 233.75 252.92L202.56 386.46C200.77 394.2 193.03 399.01 185.29 397.21C177.56 395.41 172.75 387.67 174.55 379.94L205.73 246.39ZM273.99 375.05C268.02 380.26 258.95 379.66 253.73 373.69C248.51 367.73 249.12 358.66 255.08 353.44L297.32 316.43L255.08 279.42C249.12 274.2 248.51 265.13 253.73 259.16C258.95 253.2 268.02 252.59 273.99 257.81L328.45 305.53C328.96 305.97 329.45 306.45 329.91 306.98C335.12 312.94 334.52 322.01 328.55 327.23L273.99 375.05ZM156.92 353.44C162.88 358.66 163.49 367.73 158.27 373.69C153.05 379.66 143.98 380.26 138.01 375.05L83.45 327.23C77.48 322.01 76.88 312.94 82.1 306.98C82.55 306.45 83.04 305.97 83.55 305.53L138.01 257.81C143.98 252.59 153.05 253.2 158.27 259.16C163.49 265.13 162.88 274.2 156.92 279.42L114.68 316.43L156.92 353.44ZM381.58 166.14H257.32C248.96 166.14 242.29 159.34 242.29 151.11V29.78H30.43V482.15H381.62C381.62 376.78 381.58 271.5 381.58 166.14ZM272.22 52.39L361.72 136.21H272.22V52.39Z" fill="#FFD700"/>
</g>
<defs>
<clipPath id="clip0_164_69">
<rect width="411" height="512.07" fill="white" transform="translate(0.5)"/>
</clipPath>
</defs>
</svg>
