<svg width="65" height="64" viewBox="0 0 65 64" fill="none" xmlns="http://www.w3.org/2000/svg">
<g clip-path="url(#clip0_164_71)">
<path d="M54.207 11.293L43.207 0.293C43.013 0.115494 42.7627 0.0117913 42.5 0L11.5 0C11.2348 0 10.9804 0.105357 10.7929 0.292893C10.6054 0.48043 10.5 0.734784 10.5 1V63C10.5 63.2652 10.6054 63.5196 10.7929 63.7071C10.9804 63.8946 11.2348 64 11.5 64H53.5C53.7652 64 54.0196 63.8946 54.2071 63.7071C54.3946 63.5196 54.5 63.2652 54.5 63V12C54.491 11.7367 54.3869 11.4855 54.207 11.293ZM51.086 11H43.5V3.414L51.086 11ZM12.5 62V2H41.5V12C41.5 12.2652 41.6054 12.5196 41.7929 12.7071C41.9804 12.8946 42.2348 13 42.5 13H52.5V62H12.5Z" fill="#FFD700"/>
<path d="M27.2815 30.375C27.1994 30.2724 27.098 30.187 26.9829 30.1236C26.8678 30.0602 26.7414 30.0202 26.6108 30.0057C26.4802 29.9912 26.3481 30.0026 26.2219 30.0392C26.0957 30.0758 25.978 30.1369 25.8755 30.219L20.8755 34.219C20.7583 34.3127 20.6637 34.4315 20.5987 34.5667C20.5337 34.7019 20.5 34.85 20.5 35C20.5 35.15 20.5337 35.2981 20.5987 35.4333C20.6637 35.5685 20.7583 35.6873 20.8755 35.781L25.8755 39.781C26.0826 39.9468 26.3471 40.0234 26.6108 39.9942C26.8745 39.9649 27.1157 39.8321 27.2815 39.625C27.4472 39.4179 27.5239 39.1534 27.4947 38.8897C27.4654 38.626 27.3326 38.3848 27.1255 38.219L23.1005 35L27.1245 31.781C27.2271 31.699 27.3126 31.5976 27.3761 31.4826C27.4396 31.3675 27.4797 31.2411 27.4943 31.1105C27.5089 30.98 27.4976 30.8478 27.4611 30.7216C27.4246 30.5954 27.3635 30.4776 27.2815 30.375Z" fill="#FFD700"/>
<path d="M39.1253 30.219C38.9182 30.0532 38.6537 29.9766 38.39 30.0058C38.1263 30.0351 37.8851 30.1679 37.7193 30.375C37.5535 30.5821 37.4768 30.8466 37.5061 31.1103C37.5354 31.374 37.6682 31.6152 37.8753 31.781L41.9003 35L37.8763 38.219C37.7737 38.3011 37.6883 38.4025 37.625 38.5176C37.5616 38.6327 37.5216 38.7591 37.5071 38.8897C37.4926 39.0202 37.504 39.1524 37.5406 39.2785C37.5771 39.4047 37.6382 39.5224 37.7203 39.625C37.8024 39.7276 37.9038 39.813 38.0189 39.8763C38.134 39.9396 38.2604 39.9797 38.391 39.9942C38.5215 40.0087 38.6537 39.9973 38.7798 39.9607C38.906 39.9241 39.0237 39.8631 39.1263 39.781L44.1263 35.781C44.2434 35.6873 44.338 35.5685 44.403 35.4333C44.468 35.2981 44.5018 35.15 44.5018 35C44.5018 34.85 44.468 34.7019 44.403 34.5667C44.338 34.4315 44.2434 34.3127 44.1263 34.219L39.1253 30.219Z" fill="#FFD700"/>
<path d="M34.7 24.02C34.4401 23.9682 34.1703 24.0216 33.9498 24.1686C33.7293 24.3156 33.5761 24.5442 33.524 24.804L29.524 44.804C29.4819 45.0598 29.5409 45.322 29.6884 45.5352C29.8359 45.7484 30.0604 45.896 30.3146 45.9468C30.5689 45.9977 30.8329 45.9478 31.051 45.8077C31.2692 45.6677 31.4244 45.4483 31.484 45.196L35.484 25.196C35.5358 24.9361 35.4824 24.6663 35.3354 24.4458C35.1883 24.2253 34.9598 24.0721 34.7 24.02Z" fill="#FFD700"/>
</g>
<defs>
<clipPath id="clip0_164_71">
<rect width="64" height="64" fill="white" transform="translate(0.5)"/>
</clipPath>
</defs>
</svg>
