<svg width="33" height="32" viewBox="0 0 33 32" fill="none" xmlns="http://www.w3.org/2000/svg">
<path d="M16.5 14C12.6401 14 9.5 10.8599 9.5 7C9.5 3.14014 12.6401 0 16.5 0C20.3599 0 23.5 3.14014 23.5 7C23.5 10.8599 20.3599 14 16.5 14ZM16.5 2C13.7432 2 11.5 4.24316 11.5 7C11.5 9.75684 13.7432 12 16.5 12C19.2568 12 21.5 9.75684 21.5 7C21.5 4.24316 19.2568 2 16.5 2Z" fill="#FFD700"/>
<path d="M24.4424 32H8.55762C6.32031 32 4.5 30.1797 4.5 27.9424C4.5 21.3257 9.8833 15.9424 16.5 15.9424C23.1167 15.9424 28.5 21.3257 28.5 27.9424C28.5 30.1797 26.6797 32 24.4424 32ZM16.5 17.9424C10.9858 17.9424 6.5 22.4282 6.5 27.9424C6.5 29.0771 7.42285 30 8.55762 30H24.4424C25.5771 30 26.5 29.0771 26.5 27.9424C26.5 22.4282 22.0142 17.9424 16.5 17.9424Z" fill="#FFD700"/>
</svg>
