<svg width="24" height="25" viewBox="0 0 24 25" fill="none" xmlns="http://www.w3.org/2000/svg">
<g clip-path="url(#clip0_117_12)">
<path fill-rule="evenodd" clip-rule="evenodd" d="M20.503 3.50438C18.2472 1.24569 15.2471 0.00117647 12.0504 0C5.46344 0 0.102588 5.36028 0.100282 11.949C0.0991529 14.0552 0.649788 16.1111 1.69548 17.9229L0 24.1157L6.33492 22.454C8.08019 23.4064 10.0455 23.9077 12.0453 23.9083H12.0504C18.6362 23.9083 23.9977 18.5475 24 11.9587C24.0011 8.76555 22.7594 5.76367 20.503 3.50494V3.50438ZM12.0504 21.8903H12.0464C10.2644 21.8897 8.51624 21.4106 6.99096 20.5059L6.62828 20.2905L2.86894 21.2766L3.87224 17.6112L3.63614 17.2353C2.64202 15.6539 2.11661 13.8261 2.11774 11.9496C2.12005 6.47355 6.57558 2.01802 12.0544 2.01802C14.7073 2.0192 17.201 3.05346 19.0763 4.93111C20.9517 6.80819 21.9836 9.30414 21.9825 11.9576C21.9801 17.4342 17.5247 21.8897 12.0504 21.8897V21.8903ZM17.4983 14.4518C17.1998 14.3023 15.7319 13.5803 15.4579 13.4806C15.184 13.3808 14.9853 13.3311 14.7864 13.6301C14.5876 13.9293 14.0152 14.6019 13.841 14.8007C13.6668 15.0001 13.4926 15.0248 13.1941 14.8752C12.8956 14.7256 11.9335 14.4105 10.7927 13.3935C9.90518 12.6016 9.30579 11.6241 9.13167 11.325C8.95746 11.0259 9.11332 10.8643 9.26226 10.7159C9.39633 10.5819 9.5608 10.367 9.71035 10.1928C9.85991 10.0186 9.90918 9.89374 10.0088 9.69487C10.1086 9.49544 10.0587 9.32137 9.98428 9.17172C9.90974 9.02221 9.31271 7.55247 9.06344 6.95487C8.82104 6.37275 8.57473 6.45181 8.39195 6.44207C8.21769 6.43346 8.01892 6.43177 7.81953 6.43177C7.62014 6.43177 7.29694 6.50621 7.02306 6.80536C6.74918 7.10438 5.97793 7.82696 5.97793 9.29605C5.97793 10.7652 7.04772 12.1857 7.19727 12.3851C7.34678 12.5845 9.30292 15.6 12.2979 16.8939C13.0102 17.2016 13.5665 17.3855 14.0003 17.523C14.7154 17.7504 15.3663 17.7184 15.8808 17.6416C16.4544 17.5557 17.6473 16.9191 17.896 16.2217C18.1446 15.5244 18.1446 14.9262 18.0702 14.8018C17.9957 14.6776 17.7963 14.6024 17.4978 14.4529L17.4983 14.4518Z" fill="#EFBF04"/>
</g>
<defs>
<clipPath id="clip0_117_12">
<rect width="24" height="24.1157" fill="white"/>
</clipPath>
</defs>
</svg>
