<svg width="25" height="25" viewBox="0 0 25 25" fill="none" xmlns="http://www.w3.org/2000/svg">
<g clip-path="url(#clip0_164_86)">
<mask id="mask0_164_86" style="mask-type:luminance" maskUnits="userSpaceOnUse" x="0" y="0" width="25" height="25">
<path d="M24.5 0H0.5V24.1157H24.5V0Z" fill="white"/>
</mask>
<g mask="url(#mask0_164_86)">
<path fill-rule="evenodd" clip-rule="evenodd" d="M21.003 3.50438C18.7472 1.24569 15.7471 0.00117647 12.5504 0C5.96344 0 0.602588 5.36028 0.600282 11.949C0.599153 14.0552 1.14979 16.1111 2.19548 17.9229L0.5 24.1157L6.83492 22.454C8.58019 23.4064 10.5455 23.9077 12.5453 23.9083H12.5504C19.1362 23.9083 24.4977 18.5475 24.5 11.9587C24.5011 8.76555 23.2594 5.76311 21.003 3.50438ZM12.5504 21.8903H12.5464C10.7644 21.8897 9.01624 21.4106 7.49096 20.5059L7.12828 20.2905L3.36894 21.2766L4.37224 17.6112L4.13614 17.2353C3.14202 15.6539 2.61661 13.8261 2.61774 11.9496C2.62005 6.47355 7.07558 2.01802 12.5544 2.01802C15.2073 2.0192 17.701 3.05346 19.5763 4.93111C21.4517 6.80819 22.4836 9.30414 22.4825 11.9576C22.4801 17.4342 18.0247 21.8903 12.5504 21.8903ZM17.9983 14.4518C17.6998 14.3023 16.2319 13.5803 15.9579 13.4806C15.684 13.3808 15.4853 13.3311 15.2864 13.6301C15.0876 13.9293 14.5152 14.6019 14.341 14.8007C14.1668 15.0001 13.9926 15.0248 13.6941 14.8752C13.3956 14.7256 12.4335 14.4105 11.2927 13.3935C10.4052 12.6016 9.80579 11.6241 9.63167 11.325C9.45746 11.0259 9.61332 10.8643 9.76226 10.7159C9.89633 10.5819 10.0608 10.367 10.2104 10.1928C10.3599 10.0186 10.4092 9.89374 10.5088 9.69487C10.6086 9.49544 10.5587 9.32137 10.4843 9.17172C10.4097 9.02221 9.81271 7.55247 9.56344 6.95487C9.32104 6.37275 9.07473 6.45181 8.89195 6.44207C8.71769 6.43346 8.51892 6.43177 8.31953 6.43177C8.12014 6.43177 7.79694 6.50621 7.52306 6.80536C7.24918 7.10438 6.47793 7.82696 6.47793 9.29605C6.47793 10.7652 7.54772 12.1857 7.69727 12.3851C7.84678 12.5845 9.80292 15.6 12.7979 16.8939C13.5102 17.2016 14.0665 17.3855 14.5003 17.523C15.2154 17.7504 15.8663 17.7184 16.3808 17.6416C16.9544 17.5557 18.1473 16.9191 18.396 16.2217C18.6446 15.5244 18.6446 14.9262 18.5702 14.8018C18.4957 14.6776 18.2963 14.6024 17.9978 14.4529L17.9983 14.4518Z" fill="#EFBF04"/>
</g>
</g>
<defs>
<clipPath id="clip0_164_86">
<rect width="24" height="25" fill="white" transform="translate(0.5)"/>
</clipPath>
</defs>
</svg>
